<svg xmlns="http://www.w3.org/2000/svg" xmlns:xlink="http://www.w3.org/1999/xlink" width="500" zoomAndPan="magnify" viewBox="0 0 375 149.999998" height="200" preserveAspectRatio="xMidYMid meet" version="1.2"><defs><clipPath id="a89c3a80cc"><path d="M 137 63 L 202.398438 63 L 202.398438 138.199219 L 137 138.199219 Z M 137 63 "/></clipPath><clipPath id="537d31a5b4"><path d="M 74.148438 7.699219 L 202.398438 7.699219 L 202.398438 124 L 74.148438 124 Z M 74.148438 7.699219 "/></clipPath><clipPath id="6ea1c5c049"><path d="M 202.21875 60 L 324 60 L 324 134.84375 L 202.21875 134.84375 Z M 202.21875 60 "/></clipPath><clipPath id="2483cb2bb6"><path d="M 202.21875 4.34375 L 239 4.34375 L 239 120 L 202.21875 120 Z M 202.21875 4.34375 "/></clipPath></defs><g id="5fc087d94b"><g clip-rule="nonzero" clip-path="url(#a89c3a80cc)"><path style=" stroke:none;fill-rule:nonzero;fill:#ff3131;fill-opacity:1;" d="M 274.578125 63.714844 C 277.3125 65.976562 283.117188 69.828125 288.65625 73.796875 C 294.195312 77.769531 299.414062 81.828125 304.222656 85.988281 C 309.03125 90.148438 313.382812 94.386719 317.105469 98.808594 C 320.824219 103.226562 323.902344 107.773438 325.773438 111.699219 C 327.644531 115.621094 328.460938 118.417969 328.273438 120.800781 C 328.085938 123.179688 327.171875 125.167969 325.484375 126.859375 C 323.800781 128.554688 321.296875 129.96875 317.957031 131.082031 C 314.617188 132.195312 310.441406 132.863281 305.738281 133.003906 C 301.035156 133.144531 296.0625 132.910156 290.691406 132.304688 C 285.320312 131.695312 279.554688 130.710938 273.382812 129.390625 C 267.214844 128.074219 260.664062 126.371094 253.726562 124.3125 C 246.789062 122.257812 239.4375 119.964844 230.574219 116.996094 C 221.707031 114.03125 212.046875 110.636719 203.058594 107.285156 C 194.074219 103.9375 185.742188 100.683594 178.066406 97.5 C 170.394531 94.316406 163.367188 91.207031 156.972656 88.191406 C 150.574219 85.175781 144.75 82.320312 140.785156 80.046875 C 136.824219 77.773438 136.824219 77.773438 139.382812 79.421875 C 139.382812 79.421875 144.253906 83.117188 149.839844 86.882812 C 155.425781 90.644531 161.789062 94.335938 168.867188 98.015625 C 175.949219 101.695312 183.738281 105.375 192.246094 109.007812 C 200.753906 112.640625 209.964844 116.257812 219.875 119.851562 C 229.785156 123.449219 237.480469 126.03125 244.820312 128.226562 C 252.164062 130.421875 259.152344 132.195312 265.753906 133.679688 C 272.351562 135.164062 278.578125 136.285156 284.433594 137.023438 C 290.285156 137.761719 295.761719 138.15625 300.867188 138.121094 C 305.972656 138.089844 311.019531 137.585938 315.375 136.617188 C 319.730469 135.648438 323.359375 134.160156 326.167969 132.066406 C 328.972656 129.972656 330.875 127.328125 331.730469 124.25 C 332.582031 121.171875 332.34375 117.8125 331.140625 114.234375 C 329.9375 110.660156 326.941406 105.847656 323.34375 101.242188 C 319.746094 96.632812 315.527344 92.269531 310.792969 88.09375 C 306.0625 83.917969 300.871094 79.933594 295.296875 76.136719 C 289.722656 72.34375 283.894531 68.632812 280.78125 67.019531 C 274.671875 63.5625 277.574219 65.558594 274.578125 63.714844 Z M 274.578125 63.714844 "/></g><g clip-rule="nonzero" clip-path="url(#537d31a5b4)"><path style=" stroke:none;fill-rule:nonzero;fill:#ff3131;fill-opacity:1;" d="M 159.421875 16.304688 C 155.886719 15.984375 149.050781 14.632812 142.324219 13.554688 C 135.597656 12.472656 129.03125 11.679688 122.6875 11.25 C 116.34375 10.820312 110.269531 10.765625 104.515625 11.285156 C 98.761719 11.804688 93.375 12.867188 89.28125 14.335938 C 85.191406 15.804688 82.644531 17.214844 81.097656 19.039062 C 79.554688 20.863281 78.808594 22.914062 78.8125 25.304688 C 78.816406 27.695312 79.597656 30.464844 81.183594 33.605469 C 82.773438 36.746094 85.269531 40.160156 88.511719 43.570312 C 91.753906 46.984375 95.445312 50.316406 99.6875 53.667969 C 103.929688 57.019531 108.71875 60.378906 114.027344 63.785156 C 119.335938 67.195312 125.191406 70.59375 131.5625 74.019531 C 137.9375 77.441406 144.773438 80.992188 153.15625 85.125 C 161.539062 89.261719 170.792969 93.652344 179.53125 97.601562 C 188.273438 101.546875 196.480469 105.101562 204.171875 108.246094 C 211.863281 111.390625 219.039062 114.128906 225.707031 116.488281 C 232.371094 118.851562 238.519531 120.925781 242.933594 122.101562 C 247.347656 123.277344 247.347656 123.277344 244.371094 122.644531 C 244.371094 122.644531 238.308594 121.839844 231.691406 120.578125 C 225.074219 119.320312 217.960938 117.460938 210.339844 115.089844 C 202.722656 112.714844 194.601562 109.847656 186 106.433594 C 177.402344 103.023438 168.3125 99.109375 158.742188 94.683594 C 149.175781 90.261719 141.890625 86.679688 135.132812 83.070312 C 128.375 79.460938 122.160156 75.796875 116.429688 72.203125 C 110.695312 68.613281 105.484375 65.023438 100.808594 61.425781 C 96.132812 57.828125 91.96875 54.257812 88.367188 50.636719 C 84.765625 47.019531 81.53125 43.105469 79.121094 39.351562 C 76.710938 35.597656 75.183594 31.984375 74.664062 28.523438 C 74.144531 25.058594 74.652344 21.84375 76.214844 19.054688 C 77.777344 16.269531 80.3125 14.050781 83.683594 12.359375 C 87.058594 10.667969 92.574219 9.359375 98.371094 8.621094 C 104.167969 7.882812 110.238281 7.753906 116.539062 8.121094 C 122.839844 8.488281 129.332031 9.3125 135.960938 10.542969 C 142.59375 11.773438 149.34375 13.238281 152.6875 14.285156 C 159.460938 16.132812 155.996094 15.503906 159.421875 16.304688 Z M 159.421875 16.304688 "/></g><g style="fill:#ffffff;fill-opacity:1;"><g transform="translate(17.284301, 111.723974)"><path style="stroke:none" d="M 8.53125 -13.78125 L 8.53125 -12.359375 L 2.921875 -12.359375 L 2.921875 -8.265625 L 8.375 -8.265625 L 8.375 -6.84375 L 2.921875 -6.84375 L 2.921875 -1.421875 L 8.53125 -1.421875 L 8.53125 0 L 1.390625 0 L 1.390625 -13.78125 Z M 8.53125 -13.78125 "/></g></g><g style="fill:#ffffff;fill-opacity:1;"><g transform="translate(27.04812, 111.723974)"><path style="stroke:none" d="M 7.328125 -7.40625 C 7.585938 -7.851562 7.941406 -8.203125 8.390625 -8.453125 C 8.847656 -8.703125 9.351562 -8.828125 9.90625 -8.828125 C 10.8125 -8.828125 11.492188 -8.519531 11.953125 -7.90625 C 12.421875 -7.300781 12.65625 -6.4375 12.65625 -5.3125 L 12.65625 0 L 11.1875 0 L 11.1875 -5.09375 C 11.1875 -5.957031 11.054688 -6.570312 10.796875 -6.9375 C 10.546875 -7.300781 10.148438 -7.484375 9.609375 -7.484375 C 8.984375 -7.484375 8.515625 -7.25 8.203125 -6.78125 C 7.898438 -6.320312 7.75 -5.609375 7.75 -4.640625 L 7.75 0 L 6.28125 0 L 6.28125 -4.953125 C 6.28125 -5.828125 6.148438 -6.46875 5.890625 -6.875 C 5.628906 -7.28125 5.25 -7.484375 4.75 -7.484375 C 4.132812 -7.484375 3.664062 -7.242188 3.34375 -6.765625 C 3.019531 -6.296875 2.859375 -5.550781 2.859375 -4.53125 L 2.859375 0 L 1.390625 0 L 1.390625 -8.59375 L 2.859375 -8.59375 L 2.859375 -7.65625 L 2.890625 -7.65625 C 3.117188 -8.007812 3.410156 -8.289062 3.765625 -8.5 C 4.117188 -8.71875 4.515625 -8.828125 4.953125 -8.828125 C 5.453125 -8.828125 5.914062 -8.703125 6.34375 -8.453125 C 6.769531 -8.203125 7.097656 -7.851562 7.328125 -7.40625 Z M 7.328125 -7.40625 "/></g></g><g style="fill:#ffffff;fill-opacity:1;"><g transform="translate(41.090462, 111.723974)"><path style="stroke:none" d="M 2.78125 -15.078125 L 2.78125 -7.375 L 2.8125 -7.375 C 3.164062 -7.832031 3.597656 -8.1875 4.109375 -8.4375 C 4.617188 -8.695312 5.171875 -8.828125 5.765625 -8.828125 C 6.597656 -8.828125 7.332031 -8.613281 7.96875 -8.1875 C 8.601562 -7.757812 9.082031 -7.203125 9.40625 -6.515625 C 9.726562 -5.828125 9.890625 -5.085938 9.890625 -4.296875 C 9.890625 -3.515625 9.726562 -2.773438 9.40625 -2.078125 C 9.082031 -1.390625 8.597656 -0.832031 7.953125 -0.40625 C 7.316406 0.0195312 6.59375 0.234375 5.78125 0.234375 C 5.175781 0.234375 4.617188 0.113281 4.109375 -0.125 C 3.597656 -0.375 3.164062 -0.726562 2.8125 -1.1875 L 2.78125 -1.1875 L 2.78125 0 L 1.3125 0 L 1.3125 -15.078125 Z M 5.484375 -7.484375 C 4.703125 -7.484375 4.039062 -7.175781 3.5 -6.5625 C 2.96875 -5.957031 2.703125 -5.234375 2.703125 -4.390625 C 2.703125 -3.453125 2.960938 -2.671875 3.484375 -2.046875 C 4.015625 -1.421875 4.691406 -1.109375 5.515625 -1.109375 C 6.378906 -1.109375 7.070312 -1.410156 7.59375 -2.015625 C 8.125 -2.617188 8.390625 -3.40625 8.390625 -4.375 C 8.390625 -5.28125 8.117188 -6.023438 7.578125 -6.609375 C 7.035156 -7.191406 6.335938 -7.484375 5.484375 -7.484375 Z M 5.484375 -7.484375 "/></g></g><g style="fill:#ffffff;fill-opacity:1;"><g transform="translate(51.640507, 111.723974)"><path style="stroke:none" d="M 8.859375 -3.984375 L 2.125 -3.984375 C 2.144531 -3.128906 2.421875 -2.4375 2.953125 -1.90625 C 3.492188 -1.375 4.15625 -1.109375 4.9375 -1.109375 C 5.488281 -1.109375 5.972656 -1.25 6.390625 -1.53125 C 6.804688 -1.8125 7.191406 -2.265625 7.546875 -2.890625 L 8.796875 -2.171875 C 8.378906 -1.410156 7.832031 -0.816406 7.15625 -0.390625 C 6.476562 0.0234375 5.703125 0.234375 4.828125 0.234375 C 3.984375 0.234375 3.238281 0.0351562 2.59375 -0.359375 C 1.945312 -0.765625 1.457031 -1.304688 1.125 -1.984375 C 0.789062 -2.660156 0.625 -3.394531 0.625 -4.1875 C 0.625 -5.0625 0.789062 -5.851562 1.125 -6.5625 C 1.457031 -7.269531 1.941406 -7.820312 2.578125 -8.21875 C 3.210938 -8.625 3.953125 -8.828125 4.796875 -8.828125 C 5.609375 -8.828125 6.328125 -8.628906 6.953125 -8.234375 C 7.578125 -7.835938 8.054688 -7.289062 8.390625 -6.59375 C 8.722656 -5.90625 8.890625 -5.128906 8.890625 -4.265625 C 8.890625 -4.171875 8.878906 -4.078125 8.859375 -3.984375 Z M 7.328125 -5.234375 C 7.203125 -5.898438 6.898438 -6.441406 6.421875 -6.859375 C 5.953125 -7.273438 5.414062 -7.484375 4.8125 -7.484375 C 4.207031 -7.484375 3.644531 -7.265625 3.125 -6.828125 C 2.601562 -6.390625 2.289062 -5.859375 2.1875 -5.234375 Z M 7.328125 -5.234375 "/></g></g><g style="fill:#ffffff;fill-opacity:1;"><g transform="translate(61.130054, 111.723974)"><path style="stroke:none" d="M 9.234375 -15.078125 L 9.234375 0 L 7.765625 0 L 7.765625 -1.1875 L 7.734375 -1.1875 C 7.367188 -0.707031 6.929688 -0.347656 6.421875 -0.109375 C 5.921875 0.117188 5.367188 0.234375 4.765625 0.234375 C 3.984375 0.234375 3.273438 0.03125 2.640625 -0.375 C 2.015625 -0.78125 1.523438 -1.328125 1.171875 -2.015625 C 0.828125 -2.703125 0.65625 -3.457031 0.65625 -4.28125 C 0.65625 -5.125 0.828125 -5.894531 1.171875 -6.59375 C 1.523438 -7.289062 2.015625 -7.835938 2.640625 -8.234375 C 3.273438 -8.628906 3.992188 -8.828125 4.796875 -8.828125 C 5.378906 -8.828125 5.925781 -8.695312 6.4375 -8.4375 C 6.945312 -8.1875 7.378906 -7.832031 7.734375 -7.375 L 7.765625 -7.375 L 7.765625 -15.078125 Z M 4.953125 -7.484375 C 4.160156 -7.484375 3.492188 -7.179688 2.953125 -6.578125 C 2.421875 -5.972656 2.15625 -5.242188 2.15625 -4.390625 C 2.15625 -3.453125 2.414062 -2.671875 2.9375 -2.046875 C 3.46875 -1.421875 4.144531 -1.109375 4.96875 -1.109375 C 5.820312 -1.109375 6.515625 -1.40625 7.046875 -2 C 7.578125 -2.601562 7.84375 -3.394531 7.84375 -4.375 C 7.84375 -5.300781 7.570312 -6.050781 7.03125 -6.625 C 6.488281 -7.195312 5.796875 -7.484375 4.953125 -7.484375 Z M 4.953125 -7.484375 "/></g></g><g style="fill:#ffffff;fill-opacity:1;"><g transform="translate(71.680098, 111.723974)"><path style="stroke:none" d="M 9.234375 -15.078125 L 9.234375 0 L 7.765625 0 L 7.765625 -1.1875 L 7.734375 -1.1875 C 7.367188 -0.707031 6.929688 -0.347656 6.421875 -0.109375 C 5.921875 0.117188 5.367188 0.234375 4.765625 0.234375 C 3.984375 0.234375 3.273438 0.03125 2.640625 -0.375 C 2.015625 -0.78125 1.523438 -1.328125 1.171875 -2.015625 C 0.828125 -2.703125 0.65625 -3.457031 0.65625 -4.28125 C 0.65625 -5.125 0.828125 -5.894531 1.171875 -6.59375 C 1.523438 -7.289062 2.015625 -7.835938 2.640625 -8.234375 C 3.273438 -8.628906 3.992188 -8.828125 4.796875 -8.828125 C 5.378906 -8.828125 5.925781 -8.695312 6.4375 -8.4375 C 6.945312 -8.1875 7.378906 -7.832031 7.734375 -7.375 L 7.765625 -7.375 L 7.765625 -15.078125 Z M 4.953125 -7.484375 C 4.160156 -7.484375 3.492188 -7.179688 2.953125 -6.578125 C 2.421875 -5.972656 2.15625 -5.242188 2.15625 -4.390625 C 2.15625 -3.453125 2.414062 -2.671875 2.9375 -2.046875 C 3.46875 -1.421875 4.144531 -1.109375 4.96875 -1.109375 C 5.820312 -1.109375 6.515625 -1.40625 7.046875 -2 C 7.578125 -2.601562 7.84375 -3.394531 7.84375 -4.375 C 7.84375 -5.300781 7.570312 -6.050781 7.03125 -6.625 C 6.488281 -7.195312 5.796875 -7.484375 4.953125 -7.484375 Z M 4.953125 -7.484375 "/></g></g><g style="fill:#ffffff;fill-opacity:1;"><g transform="translate(82.230142, 111.723974)"><path style="stroke:none" d="M 8.859375 -3.984375 L 2.125 -3.984375 C 2.144531 -3.128906 2.421875 -2.4375 2.953125 -1.90625 C 3.492188 -1.375 4.15625 -1.109375 4.9375 -1.109375 C 5.488281 -1.109375 5.972656 -1.25 6.390625 -1.53125 C 6.804688 -1.8125 7.191406 -2.265625 7.546875 -2.890625 L 8.796875 -2.171875 C 8.378906 -1.410156 7.832031 -0.816406 7.15625 -0.390625 C 6.476562 0.0234375 5.703125 0.234375 4.828125 0.234375 C 3.984375 0.234375 3.238281 0.0351562 2.59375 -0.359375 C 1.945312 -0.765625 1.457031 -1.304688 1.125 -1.984375 C 0.789062 -2.660156 0.625 -3.394531 0.625 -4.1875 C 0.625 -5.0625 0.789062 -5.851562 1.125 -6.5625 C 1.457031 -7.269531 1.941406 -7.820312 2.578125 -8.21875 C 3.210938 -8.625 3.953125 -8.828125 4.796875 -8.828125 C 5.609375 -8.828125 6.328125 -8.628906 6.953125 -8.234375 C 7.578125 -7.835938 8.054688 -7.289062 8.390625 -6.59375 C 8.722656 -5.90625 8.890625 -5.128906 8.890625 -4.265625 C 8.890625 -4.171875 8.878906 -4.078125 8.859375 -3.984375 Z M 7.328125 -5.234375 C 7.203125 -5.898438 6.898438 -6.441406 6.421875 -6.859375 C 5.953125 -7.273438 5.414062 -7.484375 4.8125 -7.484375 C 4.207031 -7.484375 3.644531 -7.265625 3.125 -6.828125 C 2.601562 -6.390625 2.289062 -5.859375 2.1875 -5.234375 Z M 7.328125 -5.234375 "/></g></g><g style="fill:#ffffff;fill-opacity:1;"><g transform="translate(91.719689, 111.723974)"><path style="stroke:none" d="M 9.234375 -15.078125 L 9.234375 0 L 7.765625 0 L 7.765625 -1.1875 L 7.734375 -1.1875 C 7.367188 -0.707031 6.929688 -0.347656 6.421875 -0.109375 C 5.921875 0.117188 5.367188 0.234375 4.765625 0.234375 C 3.984375 0.234375 3.273438 0.03125 2.640625 -0.375 C 2.015625 -0.78125 1.523438 -1.328125 1.171875 -2.015625 C 0.828125 -2.703125 0.65625 -3.457031 0.65625 -4.28125 C 0.65625 -5.125 0.828125 -5.894531 1.171875 -6.59375 C 1.523438 -7.289062 2.015625 -7.835938 2.640625 -8.234375 C 3.273438 -8.628906 3.992188 -8.828125 4.796875 -8.828125 C 5.378906 -8.828125 5.925781 -8.695312 6.4375 -8.4375 C 6.945312 -8.1875 7.378906 -7.832031 7.734375 -7.375 L 7.765625 -7.375 L 7.765625 -15.078125 Z M 4.953125 -7.484375 C 4.160156 -7.484375 3.492188 -7.179688 2.953125 -6.578125 C 2.421875 -5.972656 2.15625 -5.242188 2.15625 -4.390625 C 2.15625 -3.453125 2.414062 -2.671875 2.9375 -2.046875 C 3.46875 -1.421875 4.144531 -1.109375 4.96875 -1.109375 C 5.820312 -1.109375 6.515625 -1.40625 7.046875 -2 C 7.578125 -2.601562 7.84375 -3.394531 7.84375 -4.375 C 7.84375 -5.300781 7.570312 -6.050781 7.03125 -6.625 C 6.488281 -7.195312 5.796875 -7.484375 4.953125 -7.484375 Z M 4.953125 -7.484375 "/></g></g><g style="fill:#ffffff;fill-opacity:1;"><g transform="translate(102.269734, 111.723974)"><path style="stroke:none" d=""/></g></g><g style="fill:#ffffff;fill-opacity:1;"><g transform="translate(107.901301, 111.723974)"><path style="stroke:none" d="M 3.1875 -14.5625 L 8.1875 -3 L 13.21875 -14.5625 L 16.015625 0 L 14.4375 0 L 12.671875 -9.328125 L 12.625 -9.328125 L 8.1875 0.5625 L 3.765625 -9.328125 L 3.734375 -9.328125 L 1.953125 0 L 0.390625 0 Z M 0.765625 -13.78125 Z M 0.765625 -13.78125 "/></g></g><g style="fill:#ffffff;fill-opacity:1;"><g transform="translate(124.284034, 111.723974)"><path style="stroke:none" d="M 0.625 -4.28125 C 0.625 -5.09375 0.820312 -5.851562 1.21875 -6.5625 C 1.625 -7.269531 2.171875 -7.820312 2.859375 -8.21875 C 3.554688 -8.625 4.316406 -8.828125 5.140625 -8.828125 C 5.953125 -8.828125 6.703125 -8.625 7.390625 -8.21875 C 8.078125 -7.820312 8.625 -7.269531 9.03125 -6.5625 C 9.445312 -5.863281 9.65625 -5.101562 9.65625 -4.28125 C 9.65625 -3.457031 9.453125 -2.695312 9.046875 -2 C 8.648438 -1.300781 8.101562 -0.753906 7.40625 -0.359375 C 6.707031 0.0351562 5.953125 0.234375 5.140625 0.234375 C 4.316406 0.234375 3.554688 0.0351562 2.859375 -0.359375 C 2.160156 -0.765625 1.613281 -1.316406 1.21875 -2.015625 C 0.820312 -2.722656 0.625 -3.476562 0.625 -4.28125 Z M 5.125 -7.484375 C 4.257812 -7.484375 3.535156 -7.171875 2.953125 -6.546875 C 2.367188 -5.929688 2.078125 -5.179688 2.078125 -4.296875 C 2.078125 -3.640625 2.234375 -3.054688 2.546875 -2.546875 C 2.867188 -2.046875 3.257812 -1.679688 3.71875 -1.453125 C 4.175781 -1.222656 4.648438 -1.109375 5.140625 -1.109375 C 5.703125 -1.109375 6.210938 -1.238281 6.671875 -1.5 C 7.140625 -1.769531 7.507812 -2.148438 7.78125 -2.640625 C 8.050781 -3.128906 8.1875 -3.679688 8.1875 -4.296875 C 8.1875 -4.859375 8.0625 -5.378906 7.8125 -5.859375 C 7.5625 -6.347656 7.195312 -6.738281 6.71875 -7.03125 C 6.25 -7.332031 5.71875 -7.484375 5.125 -7.484375 Z M 5.125 -7.484375 "/></g></g><g style="fill:#ffffff;fill-opacity:1;"><g transform="translate(134.559807, 111.723974)"><path style="stroke:none" d="M 9.234375 -15.078125 L 9.234375 0 L 7.765625 0 L 7.765625 -1.1875 L 7.734375 -1.1875 C 7.367188 -0.707031 6.929688 -0.347656 6.421875 -0.109375 C 5.921875 0.117188 5.367188 0.234375 4.765625 0.234375 C 3.984375 0.234375 3.273438 0.03125 2.640625 -0.375 C 2.015625 -0.78125 1.523438 -1.328125 1.171875 -2.015625 C 0.828125 -2.703125 0.65625 -3.457031 0.65625 -4.28125 C 0.65625 -5.125 0.828125 -5.894531 1.171875 -6.59375 C 1.523438 -7.289062 2.015625 -7.835938 2.640625 -8.234375 C 3.273438 -8.628906 3.992188 -8.828125 4.796875 -8.828125 C 5.378906 -8.828125 5.925781 -8.695312 6.4375 -8.4375 C 6.945312 -8.1875 7.378906 -7.832031 7.734375 -7.375 L 7.765625 -7.375 L 7.765625 -15.078125 Z M 4.953125 -7.484375 C 4.160156 -7.484375 3.492188 -7.179688 2.953125 -6.578125 C 2.421875 -5.972656 2.15625 -5.242188 2.15625 -4.390625 C 2.15625 -3.453125 2.414062 -2.671875 2.9375 -2.046875 C 3.46875 -1.421875 4.144531 -1.109375 4.96875 -1.109375 C 5.820312 -1.109375 6.515625 -1.40625 7.046875 -2 C 7.578125 -2.601562 7.84375 -3.394531 7.84375 -4.375 C 7.84375 -5.300781 7.570312 -6.050781 7.03125 -6.625 C 6.488281 -7.195312 5.796875 -7.484375 4.953125 -7.484375 Z M 4.953125 -7.484375 "/></g></g><g style="fill:#ffffff;fill-opacity:1;"><g transform="translate(145.109851, 111.723974)"><path style="stroke:none" d="M 8.859375 -3.984375 L 2.125 -3.984375 C 2.144531 -3.128906 2.421875 -2.4375 2.953125 -1.90625 C 3.492188 -1.375 4.15625 -1.109375 4.9375 -1.109375 C 5.488281 -1.109375 5.972656 -1.25 6.390625 -1.53125 C 6.804688 -1.8125 7.191406 -2.265625 7.546875 -2.890625 L 8.796875 -2.171875 C 8.378906 -1.410156 7.832031 -0.816406 7.15625 -0.390625 C 6.476562 0.0234375 5.703125 0.234375 4.828125 0.234375 C 3.984375 0.234375 3.238281 0.0351562 2.59375 -0.359375 C 1.945312 -0.765625 1.457031 -1.304688 1.125 -1.984375 C 0.789062 -2.660156 0.625 -3.394531 0.625 -4.1875 C 0.625 -5.0625 0.789062 -5.851562 1.125 -6.5625 C 1.457031 -7.269531 1.941406 -7.820312 2.578125 -8.21875 C 3.210938 -8.625 3.953125 -8.828125 4.796875 -8.828125 C 5.609375 -8.828125 6.328125 -8.628906 6.953125 -8.234375 C 7.578125 -7.835938 8.054688 -7.289062 8.390625 -6.59375 C 8.722656 -5.90625 8.890625 -5.128906 8.890625 -4.265625 C 8.890625 -4.171875 8.878906 -4.078125 8.859375 -3.984375 Z M 7.328125 -5.234375 C 7.203125 -5.898438 6.898438 -6.441406 6.421875 -6.859375 C 5.953125 -7.273438 5.414062 -7.484375 4.8125 -7.484375 C 4.207031 -7.484375 3.644531 -7.265625 3.125 -6.828125 C 2.601562 -6.390625 2.289062 -5.859375 2.1875 -5.234375 Z M 7.328125 -5.234375 "/></g></g><g style="fill:#ffffff;fill-opacity:1;"><g transform="translate(154.599398, 111.723974)"><path style="stroke:none" d="M 2.8125 -15.078125 L 2.8125 0 L 1.359375 0 L 1.359375 -15.078125 Z M 2.8125 -15.078125 "/></g></g><g style="fill:#ffffff;fill-opacity:1;"><g transform="translate(158.749937, 111.723974)"><path style="stroke:none" d=""/></g></g><g style="fill:#ffffff;fill-opacity:1;"><g transform="translate(164.381504, 111.723974)"><path style="stroke:none" d="M 3.484375 -13.78125 C 6.773438 -13.78125 8.421875 -12.515625 8.421875 -9.984375 C 8.421875 -8.921875 8.113281 -8.046875 7.5 -7.359375 C 6.882812 -6.671875 6.039062 -6.273438 4.96875 -6.171875 L 9.359375 0 L 7.484375 0 L 3.3125 -6.046875 L 2.921875 -6.046875 L 2.921875 0 L 1.390625 0 L 1.390625 -13.78125 Z M 2.921875 -7.40625 L 3.59375 -7.40625 C 4.6875 -7.40625 5.507812 -7.601562 6.0625 -8 C 6.613281 -8.40625 6.890625 -9.03125 6.890625 -9.875 C 6.890625 -10.789062 6.617188 -11.429688 6.078125 -11.796875 C 5.535156 -12.171875 4.753906 -12.359375 3.734375 -12.359375 L 2.921875 -12.359375 Z M 2.921875 -7.40625 "/></g></g><g style="fill:#ffffff;fill-opacity:1;"><g transform="translate(174.291595, 111.723974)"><path style="stroke:none" d="M 0.625 -4.28125 C 0.625 -5.09375 0.820312 -5.851562 1.21875 -6.5625 C 1.625 -7.269531 2.171875 -7.820312 2.859375 -8.21875 C 3.554688 -8.625 4.316406 -8.828125 5.140625 -8.828125 C 5.953125 -8.828125 6.703125 -8.625 7.390625 -8.21875 C 8.078125 -7.820312 8.625 -7.269531 9.03125 -6.5625 C 9.445312 -5.863281 9.65625 -5.101562 9.65625 -4.28125 C 9.65625 -3.457031 9.453125 -2.695312 9.046875 -2 C 8.648438 -1.300781 8.101562 -0.753906 7.40625 -0.359375 C 6.707031 0.0351562 5.953125 0.234375 5.140625 0.234375 C 4.316406 0.234375 3.554688 0.0351562 2.859375 -0.359375 C 2.160156 -0.765625 1.613281 -1.316406 1.21875 -2.015625 C 0.820312 -2.722656 0.625 -3.476562 0.625 -4.28125 Z M 5.125 -7.484375 C 4.257812 -7.484375 3.535156 -7.171875 2.953125 -6.546875 C 2.367188 -5.929688 2.078125 -5.179688 2.078125 -4.296875 C 2.078125 -3.640625 2.234375 -3.054688 2.546875 -2.546875 C 2.867188 -2.046875 3.257812 -1.679688 3.71875 -1.453125 C 4.175781 -1.222656 4.648438 -1.109375 5.140625 -1.109375 C 5.703125 -1.109375 6.210938 -1.238281 6.671875 -1.5 C 7.140625 -1.769531 7.507812 -2.148438 7.78125 -2.640625 C 8.050781 -3.128906 8.1875 -3.679688 8.1875 -4.296875 C 8.1875 -4.859375 8.0625 -5.378906 7.8125 -5.859375 C 7.5625 -6.347656 7.195312 -6.738281 6.71875 -7.03125 C 6.25 -7.332031 5.71875 -7.484375 5.125 -7.484375 Z M 5.125 -7.484375 "/></g></g><g style="fill:#ffffff;fill-opacity:1;"><g transform="translate(184.567368, 111.723974)"><path style="stroke:none" d="M 7.765625 -6.03125 L 7.734375 -6.03125 C 7.410156 -6.457031 7.019531 -6.804688 6.5625 -7.078125 C 6.113281 -7.347656 5.613281 -7.484375 5.0625 -7.484375 C 4.207031 -7.484375 3.488281 -7.171875 2.90625 -6.546875 C 2.320312 -5.921875 2.03125 -5.171875 2.03125 -4.296875 C 2.03125 -3.421875 2.3125 -2.671875 2.875 -2.046875 C 3.4375 -1.421875 4.140625 -1.109375 4.984375 -1.109375 C 5.609375 -1.109375 6.140625 -1.238281 6.578125 -1.5 C 7.023438 -1.769531 7.425781 -2.132812 7.78125 -2.59375 L 7.828125 -2.59375 L 7.828125 -0.640625 C 7.421875 -0.359375 6.992188 -0.144531 6.546875 0 C 6.097656 0.15625 5.613281 0.234375 5.09375 0.234375 C 4.28125 0.234375 3.515625 0.0390625 2.796875 -0.34375 C 2.085938 -0.738281 1.53125 -1.285156 1.125 -1.984375 C 0.726562 -2.679688 0.53125 -3.453125 0.53125 -4.296875 C 0.53125 -5.085938 0.726562 -5.832031 1.125 -6.53125 C 1.519531 -7.238281 2.078125 -7.796875 2.796875 -8.203125 C 3.515625 -8.617188 4.289062 -8.828125 5.125 -8.828125 C 5.5625 -8.828125 5.988281 -8.765625 6.40625 -8.640625 C 6.820312 -8.523438 7.273438 -8.300781 7.765625 -7.96875 Z M 7.765625 -6.03125 "/></g></g><g style="fill:#ffffff;fill-opacity:1;"><g transform="translate(193.270689, 111.723974)"><path style="stroke:none" d="M 2.78125 -15.078125 L 2.78125 -5.40625 L 5.90625 -8.59375 L 7.859375 -8.59375 L 4.1875 -4.9375 L 8.5625 0 L 6.625 0 L 3.15625 -3.90625 L 2.78125 -3.53125 L 2.78125 0 L 1.3125 0 L 1.3125 -15.078125 Z M 2.78125 -15.078125 "/></g></g><g style="fill:#ffffff;fill-opacity:1;"><g transform="translate(201.864312, 111.723974)"><path style="stroke:none" d="M 8.859375 -3.984375 L 2.125 -3.984375 C 2.144531 -3.128906 2.421875 -2.4375 2.953125 -1.90625 C 3.492188 -1.375 4.15625 -1.109375 4.9375 -1.109375 C 5.488281 -1.109375 5.972656 -1.25 6.390625 -1.53125 C 6.804688 -1.8125 7.191406 -2.265625 7.546875 -2.890625 L 8.796875 -2.171875 C 8.378906 -1.410156 7.832031 -0.816406 7.15625 -0.390625 C 6.476562 0.0234375 5.703125 0.234375 4.828125 0.234375 C 3.984375 0.234375 3.238281 0.0351562 2.59375 -0.359375 C 1.945312 -0.765625 1.457031 -1.304688 1.125 -1.984375 C 0.789062 -2.660156 0.625 -3.394531 0.625 -4.1875 C 0.625 -5.0625 0.789062 -5.851562 1.125 -6.5625 C 1.457031 -7.269531 1.941406 -7.820312 2.578125 -8.21875 C 3.210938 -8.625 3.953125 -8.828125 4.796875 -8.828125 C 5.609375 -8.828125 6.328125 -8.628906 6.953125 -8.234375 C 7.578125 -7.835938 8.054688 -7.289062 8.390625 -6.59375 C 8.722656 -5.90625 8.890625 -5.128906 8.890625 -4.265625 C 8.890625 -4.171875 8.878906 -4.078125 8.859375 -3.984375 Z M 7.328125 -5.234375 C 7.203125 -5.898438 6.898438 -6.441406 6.421875 -6.859375 C 5.953125 -7.273438 5.414062 -7.484375 4.8125 -7.484375 C 4.207031 -7.484375 3.644531 -7.265625 3.125 -6.828125 C 2.601562 -6.390625 2.289062 -5.859375 2.1875 -5.234375 Z M 7.328125 -5.234375 "/></g></g><g style="fill:#ffffff;fill-opacity:1;"><g transform="translate(211.353859, 111.723974)"><path style="stroke:none" d="M 2.921875 -11.6875 L 2.921875 -8.59375 L 4.453125 -8.59375 L 4.453125 -7.234375 L 2.921875 -7.234375 L 2.921875 0 L 1.46875 0 L 1.46875 -7.234375 L 0.5625 -7.234375 L 0.5625 -8.59375 L 1.46875 -8.59375 L 1.46875 -11.6875 Z M 2.921875 -11.6875 "/></g></g><g style="fill:#ffffff;fill-opacity:1;"><g transform="translate(215.742095, 111.723974)"><path style="stroke:none" d=""/></g></g><g style="fill:#ffffff;fill-opacity:1;"><g transform="translate(221.373662, 111.723974)"><path style="stroke:none" d="M 6.46875 -14.4375 L 12.671875 0 L 10.96875 0 L 9.34375 -3.90625 L 3.453125 -3.90625 L 1.796875 0 L 0.109375 0 Z M 4.078125 -5.34375 L 8.734375 -5.34375 L 6.4375 -10.859375 Z M 2.484375 -13.78125 Z M 2.484375 -13.78125 "/></g></g><g style="fill:#ffffff;fill-opacity:1;"><g transform="translate(234.154385, 111.723974)"><path style="stroke:none" d="M 1.6875 -8.59375 L 4.234375 -2.8125 L 6.796875 -8.59375 L 8.453125 -8.59375 L 4.234375 0.5625 L 0.015625 -8.59375 Z M 1.796875 0 Z M 1.796875 0 "/></g></g><g style="fill:#ffffff;fill-opacity:1;"><g transform="translate(242.620023, 111.723974)"><path style="stroke:none" d="M 3.125 -8.59375 L 3.125 0 L 1.65625 0 L 1.65625 -8.59375 Z M 1.359375 -11.859375 C 1.359375 -12.128906 1.460938 -12.363281 1.671875 -12.5625 C 1.890625 -12.769531 2.128906 -12.875 2.390625 -12.875 C 2.671875 -12.875 2.914062 -12.769531 3.125 -12.5625 C 3.332031 -12.363281 3.4375 -12.128906 3.4375 -11.859375 C 3.4375 -11.546875 3.332031 -11.285156 3.125 -11.078125 C 2.914062 -10.878906 2.671875 -10.78125 2.390625 -10.78125 C 2.109375 -10.78125 1.863281 -10.878906 1.65625 -11.078125 C 1.457031 -11.273438 1.359375 -11.535156 1.359375 -11.859375 Z M 1.359375 -11.859375 "/></g></g><g style="fill:#ffffff;fill-opacity:1;"><g transform="translate(247.410502, 111.723974)"><path style="stroke:none" d="M 0.625 -4.28125 C 0.625 -5.09375 0.820312 -5.851562 1.21875 -6.5625 C 1.625 -7.269531 2.171875 -7.820312 2.859375 -8.21875 C 3.554688 -8.625 4.316406 -8.828125 5.140625 -8.828125 C 5.953125 -8.828125 6.703125 -8.625 7.390625 -8.21875 C 8.078125 -7.820312 8.625 -7.269531 9.03125 -6.5625 C 9.445312 -5.863281 9.65625 -5.101562 9.65625 -4.28125 C 9.65625 -3.457031 9.453125 -2.695312 9.046875 -2 C 8.648438 -1.300781 8.101562 -0.753906 7.40625 -0.359375 C 6.707031 0.0351562 5.953125 0.234375 5.140625 0.234375 C 4.316406 0.234375 3.554688 0.0351562 2.859375 -0.359375 C 2.160156 -0.765625 1.613281 -1.316406 1.21875 -2.015625 C 0.820312 -2.722656 0.625 -3.476562 0.625 -4.28125 Z M 5.125 -7.484375 C 4.257812 -7.484375 3.535156 -7.171875 2.953125 -6.546875 C 2.367188 -5.929688 2.078125 -5.179688 2.078125 -4.296875 C 2.078125 -3.640625 2.234375 -3.054688 2.546875 -2.546875 C 2.867188 -2.046875 3.257812 -1.679688 3.71875 -1.453125 C 4.175781 -1.222656 4.648438 -1.109375 5.140625 -1.109375 C 5.703125 -1.109375 6.210938 -1.238281 6.671875 -1.5 C 7.140625 -1.769531 7.507812 -2.148438 7.78125 -2.640625 C 8.050781 -3.128906 8.1875 -3.679688 8.1875 -4.296875 C 8.1875 -4.859375 8.0625 -5.378906 7.8125 -5.859375 C 7.5625 -6.347656 7.195312 -6.738281 6.71875 -7.03125 C 6.25 -7.332031 5.71875 -7.484375 5.125 -7.484375 Z M 5.125 -7.484375 "/></g></g><g style="fill:#ffffff;fill-opacity:1;"><g transform="translate(257.686275, 111.723974)"><path style="stroke:none" d="M 8.265625 0 L 6.796875 0 L 6.796875 -5.015625 C 6.796875 -5.878906 6.664062 -6.503906 6.40625 -6.890625 C 6.144531 -7.285156 5.671875 -7.484375 4.984375 -7.484375 C 4.210938 -7.484375 3.664062 -7.210938 3.34375 -6.671875 C 3.019531 -6.140625 2.859375 -5.320312 2.859375 -4.21875 L 2.859375 0 L 1.390625 0 L 1.390625 -8.59375 L 2.859375 -8.59375 L 2.859375 -7.546875 L 2.890625 -7.546875 C 3.191406 -7.960938 3.539062 -8.28125 3.9375 -8.5 C 4.332031 -8.71875 4.800781 -8.828125 5.34375 -8.828125 C 6.300781 -8.828125 7.023438 -8.53125 7.515625 -7.9375 C 8.015625 -7.351562 8.265625 -6.4375 8.265625 -5.1875 Z M 8.265625 0 "/></g></g><g style="fill:#ffffff;fill-opacity:1;"><g transform="translate(267.340382, 111.723974)"><path style="stroke:none" d="M 3.125 -8.59375 L 3.125 0 L 1.65625 0 L 1.65625 -8.59375 Z M 1.359375 -11.859375 C 1.359375 -12.128906 1.460938 -12.363281 1.671875 -12.5625 C 1.890625 -12.769531 2.128906 -12.875 2.390625 -12.875 C 2.671875 -12.875 2.914062 -12.769531 3.125 -12.5625 C 3.332031 -12.363281 3.4375 -12.128906 3.4375 -11.859375 C 3.4375 -11.546875 3.332031 -11.285156 3.125 -11.078125 C 2.914062 -10.878906 2.671875 -10.78125 2.390625 -10.78125 C 2.109375 -10.78125 1.863281 -10.878906 1.65625 -11.078125 C 1.457031 -11.273438 1.359375 -11.535156 1.359375 -11.859375 Z M 1.359375 -11.859375 "/></g></g><g style="fill:#ffffff;fill-opacity:1;"><g transform="translate(272.130861, 111.723974)"><path style="stroke:none" d="M 7.765625 -6.03125 L 7.734375 -6.03125 C 7.410156 -6.457031 7.019531 -6.804688 6.5625 -7.078125 C 6.113281 -7.347656 5.613281 -7.484375 5.0625 -7.484375 C 4.207031 -7.484375 3.488281 -7.171875 2.90625 -6.546875 C 2.320312 -5.921875 2.03125 -5.171875 2.03125 -4.296875 C 2.03125 -3.421875 2.3125 -2.671875 2.875 -2.046875 C 3.4375 -1.421875 4.140625 -1.109375 4.984375 -1.109375 C 5.609375 -1.109375 6.140625 -1.238281 6.578125 -1.5 C 7.023438 -1.769531 7.425781 -2.132812 7.78125 -2.59375 L 7.828125 -2.59375 L 7.828125 -0.640625 C 7.421875 -0.359375 6.992188 -0.144531 6.546875 0 C 6.097656 0.15625 5.613281 0.234375 5.09375 0.234375 C 4.28125 0.234375 3.515625 0.0390625 2.796875 -0.34375 C 2.085938 -0.738281 1.53125 -1.285156 1.125 -1.984375 C 0.726562 -2.679688 0.53125 -3.453125 0.53125 -4.296875 C 0.53125 -5.085938 0.726562 -5.832031 1.125 -6.53125 C 1.519531 -7.238281 2.078125 -7.796875 2.796875 -8.203125 C 3.515625 -8.617188 4.289062 -8.828125 5.125 -8.828125 C 5.5625 -8.828125 5.988281 -8.765625 6.40625 -8.640625 C 6.820312 -8.523438 7.273438 -8.300781 7.765625 -7.96875 Z M 7.765625 -6.03125 "/></g></g><g style="fill:#ffffff;fill-opacity:1;"><g transform="translate(280.834182, 111.723974)"><path style="stroke:none" d="M 4.859375 -6.59375 C 4.722656 -6.875 4.550781 -7.09375 4.34375 -7.25 C 4.144531 -7.40625 3.925781 -7.484375 3.6875 -7.484375 C 3.425781 -7.484375 3.179688 -7.382812 2.953125 -7.1875 C 2.734375 -7 2.625 -6.78125 2.625 -6.53125 C 2.625 -6.03125 3.101562 -5.601562 4.0625 -5.25 C 5.019531 -4.90625 5.6875 -4.523438 6.0625 -4.109375 C 6.4375 -3.691406 6.625 -3.175781 6.625 -2.5625 C 6.625 -2.082031 6.507812 -1.632812 6.28125 -1.21875 C 6.0625 -0.8125 5.722656 -0.46875 5.265625 -0.1875 C 4.816406 0.09375 4.300781 0.234375 3.71875 0.234375 C 3.007812 0.234375 2.382812 0.046875 1.84375 -0.328125 C 1.3125 -0.703125 0.921875 -1.238281 0.671875 -1.9375 L 1.96875 -2.484375 C 2.1875 -1.972656 2.429688 -1.613281 2.703125 -1.40625 C 2.984375 -1.207031 3.328125 -1.109375 3.734375 -1.109375 C 4.140625 -1.109375 4.472656 -1.234375 4.734375 -1.484375 C 4.992188 -1.734375 5.125 -2.050781 5.125 -2.4375 C 5.125 -2.75 5.003906 -3.023438 4.765625 -3.265625 C 4.535156 -3.503906 4.113281 -3.742188 3.5 -3.984375 C 2.882812 -4.222656 2.40625 -4.46875 2.0625 -4.71875 C 1.53125 -5.101562 1.257812 -5.660156 1.25 -6.390625 C 1.25 -7.078125 1.488281 -7.65625 1.96875 -8.125 C 2.457031 -8.59375 3.066406 -8.828125 3.796875 -8.828125 C 4.265625 -8.828125 4.710938 -8.679688 5.140625 -8.390625 C 5.566406 -8.097656 5.882812 -7.710938 6.09375 -7.234375 Z M 4.859375 -6.59375 "/></g></g><g style="fill:#ffffff;fill-opacity:1;"><g transform="translate(288.129612, 111.723974)"><path style="stroke:none" d=""/></g></g><g style="fill:#ffffff;fill-opacity:1;"><g transform="translate(293.761179, 111.723974)"><path style="stroke:none" d="M 7.640625 -11.09375 C 7.335938 -11.632812 7 -12.019531 6.625 -12.25 C 6.25 -12.476562 5.800781 -12.59375 5.28125 -12.59375 C 4.613281 -12.59375 4.0625 -12.382812 3.625 -11.96875 C 3.195312 -11.5625 2.984375 -11.054688 2.984375 -10.453125 C 2.984375 -9.992188 3.160156 -9.597656 3.515625 -9.265625 C 3.878906 -8.941406 4.316406 -8.660156 4.828125 -8.421875 C 5.335938 -8.191406 5.800781 -7.988281 6.21875 -7.8125 C 6.632812 -7.644531 7.113281 -7.390625 7.65625 -7.046875 C 8.207031 -6.710938 8.628906 -6.289062 8.921875 -5.78125 C 9.210938 -5.269531 9.359375 -4.679688 9.359375 -4.015625 C 9.359375 -3.265625 9.164062 -2.554688 8.78125 -1.890625 C 8.40625 -1.234375 7.882812 -0.710938 7.21875 -0.328125 C 6.550781 0.046875 5.820312 0.234375 5.03125 0.234375 C 3.945312 0.234375 3.015625 -0.0820312 2.234375 -0.71875 C 1.460938 -1.363281 0.960938 -2.234375 0.734375 -3.328125 L 2.234375 -3.75 C 2.347656 -2.988281 2.660156 -2.367188 3.171875 -1.890625 C 3.679688 -1.421875 4.285156 -1.1875 4.984375 -1.1875 C 5.753906 -1.1875 6.421875 -1.445312 6.984375 -1.96875 C 7.546875 -2.5 7.828125 -3.132812 7.828125 -3.875 C 7.828125 -4.53125 7.613281 -5.066406 7.1875 -5.484375 C 6.757812 -5.910156 5.976562 -6.347656 4.84375 -6.796875 C 3.707031 -7.253906 2.851562 -7.757812 2.28125 -8.3125 C 1.71875 -8.875 1.4375 -9.609375 1.4375 -10.515625 C 1.4375 -11.535156 1.816406 -12.375 2.578125 -13.03125 C 3.335938 -13.6875 4.242188 -14.015625 5.296875 -14.015625 C 6.078125 -14.015625 6.769531 -13.832031 7.375 -13.46875 C 7.976562 -13.101562 8.472656 -12.570312 8.859375 -11.875 Z M 7.640625 -11.09375 "/></g></g><g style="fill:#ffffff;fill-opacity:1;"><g transform="translate(303.982116, 111.723974)"><path style="stroke:none" d="M 1.65625 -8.59375 L 4.703125 -2.4375 L 7.484375 -8.59375 L 9.140625 -8.59375 L 2.796875 4.828125 L 1.140625 4.828125 L 3.90625 -0.796875 L -0.03125 -8.59375 Z M 1.65625 -8.59375 "/></g></g><g style="fill:#ffffff;fill-opacity:1;"><g transform="translate(313.087707, 111.723974)"><path style="stroke:none" d="M 4.859375 -6.59375 C 4.722656 -6.875 4.550781 -7.09375 4.34375 -7.25 C 4.144531 -7.40625 3.925781 -7.484375 3.6875 -7.484375 C 3.425781 -7.484375 3.179688 -7.382812 2.953125 -7.1875 C 2.734375 -7 2.625 -6.78125 2.625 -6.53125 C 2.625 -6.03125 3.101562 -5.601562 4.0625 -5.25 C 5.019531 -4.90625 5.6875 -4.523438 6.0625 -4.109375 C 6.4375 -3.691406 6.625 -3.175781 6.625 -2.5625 C 6.625 -2.082031 6.507812 -1.632812 6.28125 -1.21875 C 6.0625 -0.8125 5.722656 -0.46875 5.265625 -0.1875 C 4.816406 0.09375 4.300781 0.234375 3.71875 0.234375 C 3.007812 0.234375 2.382812 0.046875 1.84375 -0.328125 C 1.3125 -0.703125 0.921875 -1.238281 0.671875 -1.9375 L 1.96875 -2.484375 C 2.1875 -1.972656 2.429688 -1.613281 2.703125 -1.40625 C 2.984375 -1.207031 3.328125 -1.109375 3.734375 -1.109375 C 4.140625 -1.109375 4.472656 -1.234375 4.734375 -1.484375 C 4.992188 -1.734375 5.125 -2.050781 5.125 -2.4375 C 5.125 -2.75 5.003906 -3.023438 4.765625 -3.265625 C 4.535156 -3.503906 4.113281 -3.742188 3.5 -3.984375 C 2.882812 -4.222656 2.40625 -4.46875 2.0625 -4.71875 C 1.53125 -5.101562 1.257812 -5.660156 1.25 -6.390625 C 1.25 -7.078125 1.488281 -7.65625 1.96875 -8.125 C 2.457031 -8.59375 3.066406 -8.828125 3.796875 -8.828125 C 4.265625 -8.828125 4.710938 -8.679688 5.140625 -8.390625 C 5.566406 -8.097656 5.882812 -7.710938 6.09375 -7.234375 Z M 4.859375 -6.59375 "/></g></g><g style="fill:#ffffff;fill-opacity:1;"><g transform="translate(320.383136, 111.723974)"><path style="stroke:none" d="M 2.921875 -11.6875 L 2.921875 -8.59375 L 4.453125 -8.59375 L 4.453125 -7.234375 L 2.921875 -7.234375 L 2.921875 0 L 1.46875 0 L 1.46875 -7.234375 L 0.5625 -7.234375 L 0.5625 -8.59375 L 1.46875 -8.59375 L 1.46875 -11.6875 Z M 2.921875 -11.6875 "/></g></g><g style="fill:#ffffff;fill-opacity:1;"><g transform="translate(324.771372, 111.723974)"><path style="stroke:none" d="M 8.859375 -3.984375 L 2.125 -3.984375 C 2.144531 -3.128906 2.421875 -2.4375 2.953125 -1.90625 C 3.492188 -1.375 4.15625 -1.109375 4.9375 -1.109375 C 5.488281 -1.109375 5.972656 -1.25 6.390625 -1.53125 C 6.804688 -1.8125 7.191406 -2.265625 7.546875 -2.890625 L 8.796875 -2.171875 C 8.378906 -1.410156 7.832031 -0.816406 7.15625 -0.390625 C 6.476562 0.0234375 5.703125 0.234375 4.828125 0.234375 C 3.984375 0.234375 3.238281 0.0351562 2.59375 -0.359375 C 1.945312 -0.765625 1.457031 -1.304688 1.125 -1.984375 C 0.789062 -2.660156 0.625 -3.394531 0.625 -4.1875 C 0.625 -5.0625 0.789062 -5.851562 1.125 -6.5625 C 1.457031 -7.269531 1.941406 -7.820312 2.578125 -8.21875 C 3.210938 -8.625 3.953125 -8.828125 4.796875 -8.828125 C 5.609375 -8.828125 6.328125 -8.628906 6.953125 -8.234375 C 7.578125 -7.835938 8.054688 -7.289062 8.390625 -6.59375 C 8.722656 -5.90625 8.890625 -5.128906 8.890625 -4.265625 C 8.890625 -4.171875 8.878906 -4.078125 8.859375 -3.984375 Z M 7.328125 -5.234375 C 7.203125 -5.898438 6.898438 -6.441406 6.421875 -6.859375 C 5.953125 -7.273438 5.414062 -7.484375 4.8125 -7.484375 C 4.207031 -7.484375 3.644531 -7.265625 3.125 -6.828125 C 2.601562 -6.390625 2.289062 -5.859375 2.1875 -5.234375 Z M 7.328125 -5.234375 "/></g></g><g style="fill:#ffffff;fill-opacity:1;"><g transform="translate(334.260919, 111.723974)"><path style="stroke:none" d="M 7.328125 -7.40625 C 7.585938 -7.851562 7.941406 -8.203125 8.390625 -8.453125 C 8.847656 -8.703125 9.351562 -8.828125 9.90625 -8.828125 C 10.8125 -8.828125 11.492188 -8.519531 11.953125 -7.90625 C 12.421875 -7.300781 12.65625 -6.4375 12.65625 -5.3125 L 12.65625 0 L 11.1875 0 L 11.1875 -5.09375 C 11.1875 -5.957031 11.054688 -6.570312 10.796875 -6.9375 C 10.546875 -7.300781 10.148438 -7.484375 9.609375 -7.484375 C 8.984375 -7.484375 8.515625 -7.25 8.203125 -6.78125 C 7.898438 -6.320312 7.75 -5.609375 7.75 -4.640625 L 7.75 0 L 6.28125 0 L 6.28125 -4.953125 C 6.28125 -5.828125 6.148438 -6.46875 5.890625 -6.875 C 5.628906 -7.28125 5.25 -7.484375 4.75 -7.484375 C 4.132812 -7.484375 3.664062 -7.242188 3.34375 -6.765625 C 3.019531 -6.296875 2.859375 -5.550781 2.859375 -4.53125 L 2.859375 0 L 1.390625 0 L 1.390625 -8.59375 L 2.859375 -8.59375 L 2.859375 -7.65625 L 2.890625 -7.65625 C 3.117188 -8.007812 3.410156 -8.289062 3.765625 -8.5 C 4.117188 -8.71875 4.515625 -8.828125 4.953125 -8.828125 C 5.453125 -8.828125 5.914062 -8.703125 6.34375 -8.453125 C 6.769531 -8.203125 7.097656 -7.851562 7.328125 -7.40625 Z M 7.328125 -7.40625 "/></g></g><g style="fill:#ffffff;fill-opacity:1;"><g transform="translate(348.303261, 111.723974)"><path style="stroke:none" d="M 4.859375 -6.59375 C 4.722656 -6.875 4.550781 -7.09375 4.34375 -7.25 C 4.144531 -7.40625 3.925781 -7.484375 3.6875 -7.484375 C 3.425781 -7.484375 3.179688 -7.382812 2.953125 -7.1875 C 2.734375 -7 2.625 -6.78125 2.625 -6.53125 C 2.625 -6.03125 3.101562 -5.601562 4.0625 -5.25 C 5.019531 -4.90625 5.6875 -4.523438 6.0625 -4.109375 C 6.4375 -3.691406 6.625 -3.175781 6.625 -2.5625 C 6.625 -2.082031 6.507812 -1.632812 6.28125 -1.21875 C 6.0625 -0.8125 5.722656 -0.46875 5.265625 -0.1875 C 4.816406 0.09375 4.300781 0.234375 3.71875 0.234375 C 3.007812 0.234375 2.382812 0.046875 1.84375 -0.328125 C 1.3125 -0.703125 0.921875 -1.238281 0.671875 -1.9375 L 1.96875 -2.484375 C 2.1875 -1.972656 2.429688 -1.613281 2.703125 -1.40625 C 2.984375 -1.207031 3.328125 -1.109375 3.734375 -1.109375 C 4.140625 -1.109375 4.472656 -1.234375 4.734375 -1.484375 C 4.992188 -1.734375 5.125 -2.050781 5.125 -2.4375 C 5.125 -2.75 5.003906 -3.023438 4.765625 -3.265625 C 4.535156 -3.503906 4.113281 -3.742188 3.5 -3.984375 C 2.882812 -4.222656 2.40625 -4.46875 2.0625 -4.71875 C 1.53125 -5.101562 1.257812 -5.660156 1.25 -6.390625 C 1.25 -7.078125 1.488281 -7.65625 1.96875 -8.125 C 2.457031 -8.59375 3.066406 -8.828125 3.796875 -8.828125 C 4.265625 -8.828125 4.710938 -8.679688 5.140625 -8.390625 C 5.566406 -8.097656 5.882812 -7.710938 6.09375 -7.234375 Z M 4.859375 -6.59375 "/></g></g><g style="fill:#ffffff;fill-opacity:1;"><g transform="translate(19.091084, 87.60884)"><path style="stroke:none" d="M 25.1875 -50.125 L 22.140625 -30.78125 L 40.9375 -30.78125 L 44 -50.125 L 57.03125 -50.125 L 49.125 0 L 36.09375 0 L 39.34375 -20.53125 L 20.53125 -20.53125 L 17.28125 0 L 4.25 0 L 12.15625 -50.125 Z M 25.1875 -50.125 "/></g></g><g style="fill:#ffffff;fill-opacity:1;"><g transform="translate(70.990393, 87.60884)"><path style="stroke:none" d="M 61.609375 -29.90625 C 61.609375 -25.082031 60.210938 -20.078125 57.421875 -14.890625 C 54.628906 -9.703125 50.6875 -5.644531 45.59375 -2.71875 C 40.5 0.195312 35.03125 1.65625 29.1875 1.65625 C 22.132812 1.65625 16.414062 -0.410156 12.03125 -4.546875 C 7.644531 -8.691406 5.453125 -14.15625 5.453125 -20.9375 C 5.453125 -26.519531 6.925781 -31.671875 9.875 -36.390625 C 12.820312 -41.109375 16.832031 -44.851562 21.90625 -47.625 C 26.976562 -50.394531 32.21875 -51.78125 37.625 -51.78125 C 41.914062 -51.78125 45.929688 -50.847656 49.671875 -48.984375 C 53.421875 -47.128906 56.347656 -44.550781 58.453125 -41.25 C 60.554688 -37.945312 61.609375 -34.164062 61.609375 -29.90625 Z M 31.171875 -10.96875 C 34.179688 -10.96875 36.960938 -11.796875 39.515625 -13.453125 C 42.066406 -15.117188 44.09375 -17.269531 45.59375 -19.90625 C 47.101562 -22.539062 47.859375 -25.144531 47.859375 -27.71875 C 47.859375 -30.90625 46.648438 -33.609375 44.234375 -35.828125 C 41.816406 -38.046875 38.925781 -39.15625 35.5625 -39.15625 C 32.945312 -39.15625 30.351562 -38.441406 27.78125 -37.015625 C 25.207031 -35.597656 23.132812 -33.691406 21.5625 -31.296875 C 19.988281 -28.910156 19.203125 -26.253906 19.203125 -23.328125 C 19.203125 -19.742188 20.320312 -16.785156 22.5625 -14.453125 C 24.800781 -12.128906 27.671875 -10.96875 31.171875 -10.96875 Z M 31.171875 -10.96875 "/></g></g><g style="fill:#ffffff;fill-opacity:1;"><g transform="translate(128.471732, 87.60884)"><path style="stroke:none" d="M 31.96875 -50.125 C 36.488281 -50.125 40.109375 -49.054688 42.828125 -46.921875 C 45.554688 -44.796875 46.921875 -41.738281 46.921875 -37.75 C 46.921875 -33.5 45.65625 -29.742188 43.125 -26.484375 C 40.601562 -23.234375 37.375 -21.25 33.4375 -20.53125 L 45.9375 0 L 29.71875 0 L 20.46875 -19.28125 L 20.34375 -19.28125 L 17.28125 0 L 4.25 0 L 12.15625 -50.125 Z M 21.671875 -27.65625 L 23.46875 -27.65625 C 26.519531 -27.65625 28.882812 -28.296875 30.5625 -29.578125 C 32.25 -30.859375 33.09375 -32.742188 33.09375 -35.234375 C 33.09375 -38.503906 30.394531 -40.140625 25 -40.140625 L 23.65625 -40.140625 Z M 21.671875 -27.65625 "/></g></g><g style="fill:#ffffff;fill-opacity:1;"><g transform="translate(172.197361, 87.60884)"><path style="stroke:none" d="M 25.1875 -50.125 L 17.28125 0 L 4.25 0 L 12.15625 -50.125 Z M 25.1875 -50.125 "/></g></g><g style="fill:#ffffff;fill-opacity:1;"><g transform="translate(192.265796, 87.60884)"><path style="stroke:none" d="M 54.171875 -50.125 L 24.390625 -11.03125 L 45.390625 -11.03125 L 43.671875 0 L 0.734375 0 L 30.640625 -39.078125 L 10.96875 -39.078125 L 12.703125 -50.125 Z M 54.171875 -50.125 "/></g></g><g style="fill:#ffffff;fill-opacity:1;"><g transform="translate(237.78564, 87.60884)"><path style="stroke:none" d="M 61.609375 -29.90625 C 61.609375 -25.082031 60.210938 -20.078125 57.421875 -14.890625 C 54.628906 -9.703125 50.6875 -5.644531 45.59375 -2.71875 C 40.5 0.195312 35.03125 1.65625 29.1875 1.65625 C 22.132812 1.65625 16.414062 -0.410156 12.03125 -4.546875 C 7.644531 -8.691406 5.453125 -14.15625 5.453125 -20.9375 C 5.453125 -26.519531 6.925781 -31.671875 9.875 -36.390625 C 12.820312 -41.109375 16.832031 -44.851562 21.90625 -47.625 C 26.976562 -50.394531 32.21875 -51.78125 37.625 -51.78125 C 41.914062 -51.78125 45.929688 -50.847656 49.671875 -48.984375 C 53.421875 -47.128906 56.347656 -44.550781 58.453125 -41.25 C 60.554688 -37.945312 61.609375 -34.164062 61.609375 -29.90625 Z M 31.171875 -10.96875 C 34.179688 -10.96875 36.960938 -11.796875 39.515625 -13.453125 C 42.066406 -15.117188 44.09375 -17.269531 45.59375 -19.90625 C 47.101562 -22.539062 47.859375 -25.144531 47.859375 -27.71875 C 47.859375 -30.90625 46.648438 -33.609375 44.234375 -35.828125 C 41.816406 -38.046875 38.925781 -39.15625 35.5625 -39.15625 C 32.945312 -39.15625 30.351562 -38.441406 27.78125 -37.015625 C 25.207031 -35.597656 23.132812 -33.691406 21.5625 -31.296875 C 19.988281 -28.910156 19.203125 -26.253906 19.203125 -23.328125 C 19.203125 -19.742188 20.320312 -16.785156 22.5625 -14.453125 C 24.800781 -12.128906 27.671875 -10.96875 31.171875 -10.96875 Z M 31.171875 -10.96875 "/></g></g><g style="fill:#ffffff;fill-opacity:1;"><g transform="translate(295.266992, 87.60884)"><path style="stroke:none" d="M 25.1875 -50.125 L 44.203125 -19.46875 L 44.328125 -19.46875 L 49.1875 -50.125 L 62.21875 -50.125 L 54.3125 0 L 41.28125 0 L 22.265625 -30.703125 L 22.140625 -30.703125 L 17.28125 0 L 4.25 0 L 12.15625 -50.125 Z M 25.1875 -50.125 "/></g></g><g clip-rule="nonzero" clip-path="url(#6ea1c5c049)"><path style=" stroke:none;fill-rule:nonzero;fill:#ff3131;fill-opacity:1;" d="M 266.265625 60.355469 C 269 62.621094 274.804688 66.472656 280.34375 70.441406 C 285.882812 74.414062 291.101562 78.472656 295.910156 82.632812 C 300.71875 86.789062 305.070312 91.03125 308.792969 95.453125 C 312.511719 99.871094 315.589844 104.417969 317.460938 108.34375 C 319.332031 112.265625 320.148438 115.0625 319.960938 117.441406 C 319.773438 119.824219 318.859375 121.808594 317.175781 123.503906 C 315.488281 125.195312 312.984375 126.613281 309.644531 127.726562 C 306.304688 128.839844 302.128906 129.507812 297.425781 129.648438 C 292.722656 129.785156 287.75 129.554688 282.378906 128.949219 C 277.007812 128.339844 271.242188 127.351562 265.074219 126.035156 C 258.90625 124.71875 252.351562 123.015625 245.414062 120.957031 C 238.476562 118.898438 231.125 116.609375 222.261719 113.640625 C 213.398438 110.675781 203.734375 107.28125 194.75 103.929688 C 185.761719 100.578125 177.429688 97.324219 169.753906 94.144531 C 162.082031 90.960938 155.054688 87.851562 148.660156 84.835938 C 142.261719 81.820312 136.4375 78.964844 132.472656 76.691406 C 128.511719 74.417969 128.511719 74.417969 131.070312 76.066406 C 131.070312 76.066406 135.945312 79.761719 141.527344 83.527344 C 147.113281 87.289062 153.476562 90.980469 160.554688 94.660156 C 167.636719 98.335938 175.425781 102.019531 183.933594 105.652344 C 192.441406 109.285156 201.652344 112.902344 211.5625 116.496094 C 221.472656 120.089844 229.167969 122.675781 236.507812 124.871094 C 243.851562 127.066406 250.839844 128.839844 257.441406 130.324219 C 264.042969 131.808594 270.269531 132.929688 276.121094 133.667969 C 281.972656 134.40625 287.449219 134.800781 292.554688 134.765625 C 297.660156 134.734375 302.707031 134.230469 307.0625 133.261719 C 311.417969 132.292969 315.046875 130.800781 317.855469 128.710938 C 320.660156 126.617188 322.566406 123.972656 323.417969 120.894531 C 324.269531 117.8125 324.03125 114.457031 322.828125 110.878906 C 321.625 107.304688 318.628906 102.492188 315.03125 97.886719 C 311.433594 93.277344 307.214844 88.914062 302.480469 84.738281 C 297.75 80.5625 292.558594 76.578125 286.984375 72.78125 C 281.410156 68.988281 275.582031 65.277344 272.46875 63.664062 C 266.359375 60.207031 269.261719 62.203125 266.265625 60.355469 Z M 266.265625 60.355469 "/></g><g clip-rule="nonzero" clip-path="url(#2483cb2bb6)"><path style=" stroke:none;fill-rule:nonzero;fill:#ff3131;fill-opacity:1;" d="M 151.109375 12.949219 C 147.574219 12.628906 140.738281 11.277344 134.011719 10.199219 C 127.285156 9.117188 120.71875 8.324219 114.375 7.894531 C 108.03125 7.464844 101.957031 7.410156 96.203125 7.929688 C 90.449219 8.449219 85.0625 9.511719 80.96875 10.980469 C 76.878906 12.449219 74.332031 13.859375 72.789062 15.683594 C 71.242188 17.507812 70.496094 19.558594 70.5 21.949219 C 70.503906 24.339844 71.285156 27.109375 72.871094 30.25 C 74.460938 33.390625 76.957031 36.804688 80.199219 40.214844 C 83.441406 43.628906 87.132812 46.960938 91.375 50.3125 C 95.617188 53.664062 100.410156 57.023438 105.714844 60.429688 C 111.023438 63.835938 116.878906 67.238281 123.25 70.664062 C 129.625 74.085938 136.460938 77.636719 144.84375 81.769531 C 153.226562 85.90625 162.480469 90.296875 171.21875 94.246094 C 179.960938 98.191406 188.167969 101.746094 195.859375 104.890625 C 203.550781 108.03125 210.730469 110.769531 217.394531 113.132812 C 224.058594 115.496094 230.207031 117.570312 234.621094 118.746094 C 239.035156 119.921875 239.035156 119.921875 236.058594 119.289062 C 236.058594 119.289062 229.996094 118.484375 223.378906 117.222656 C 216.761719 115.960938 209.648438 114.105469 202.03125 111.734375 C 194.410156 109.359375 186.289062 106.492188 177.6875 103.078125 C 169.089844 99.667969 160 95.753906 150.429688 91.328125 C 140.863281 86.902344 133.578125 83.324219 126.820312 79.714844 C 120.0625 76.105469 113.847656 72.441406 108.117188 68.847656 C 102.382812 65.253906 97.171875 61.667969 92.496094 58.070312 C 87.820312 54.472656 83.65625 50.898438 80.054688 47.28125 C 76.453125 43.664062 73.21875 39.75 70.808594 35.996094 C 68.398438 32.242188 66.871094 28.628906 66.351562 25.167969 C 65.832031 21.703125 66.34375 18.484375 67.902344 15.699219 C 69.464844 12.914062 72 10.695312 75.371094 9.003906 C 78.746094 7.3125 84.261719 6.003906 90.058594 5.265625 C 95.855469 4.527344 101.925781 4.398438 108.226562 4.765625 C 114.527344 5.128906 121.019531 5.957031 127.648438 7.183594 C 134.28125 8.414062 141.03125 9.882812 144.375 10.929688 C 151.148438 12.777344 147.683594 12.148438 151.109375 12.949219 Z M 151.109375 12.949219 "/></g></g></svg>